<svg id="グループ_510" data-name="グループ 510" xmlns="http://www.w3.org/2000/svg" width="308.5" height="99.671" viewBox="0 0 308.5 99.671">
  <rect id="長方形_261" data-name="長方形 261" width="11.495" height="55.597" rx="0.85" transform="translate(84.832)"/>
  <path id="パス_330" data-name="パス 330" d="M328.206,1386.711H318.024a.655.655,0,0,0-.656.655v20.306c0,7.87-2.5,11.228-8.347,11.228-4.814,0-6.867-2.87-6.867-9.594v-21.94a.656.656,0,0,0-.656-.655H291.315a.656.656,0,0,0-.656.655v24.12c0,11.461,4.582,16.572,14.858,16.572a14.434,14.434,0,0,0,12.4-6.531v4.784a.656.656,0,0,0,.656.656h9.638a.656.656,0,0,0,.656-.656v-38.945A.655.655,0,0,0,328.206,1386.711Z" transform="translate(-189.885 -1371.37)"/>
  <path id="パス_331" data-name="パス 331" d="M426.1,1404.048v21.94a.656.656,0,0,0,.655.656h10.183a.655.655,0,0,0,.656-.656v-24.2c0-11.407-4.582-16.494-14.857-16.494a14.409,14.409,0,0,0-12.4,6.53v-4.784a.656.656,0,0,0-.655-.656h-9.639a.655.655,0,0,0-.656.656v38.945a.656.656,0,0,0,.656.656H410.23a.656.656,0,0,0,.655-.656v-20.071c0-8.141,2.418-11.462,8.347-11.462C424.045,1394.455,426.1,1397.324,426.1,1404.048Z" transform="translate(-214.762 -1371.047)"/>
  <path id="パス_332" data-name="パス 332" d="M492.041,1411.008h-9.919a.66.66,0,0,0-.642.545c-.906,4.786-3.9,7.413-8.484,7.413-6.614,0-8.97-6.226-8.97-12.256,0-5.934,2.41-12.644,9.2-12.644,4.333,0,7.039,2.131,7.857,6.171a.66.66,0,0,0,.642.54h10.12a.552.552,0,0,0,.55-.6c-.883-8.919-8.475-14.88-19.091-14.88-12.621,0-20.776,8.424-20.776,21.8,0,12.279,8.448,20.636,20.542,20.636,10.755,0,17.836-5.871,19.512-16.089A.553.553,0,0,0,492.041,1411.008Z" transform="translate(-226.921 -1371.047)"/>
  <path id="パス_333" data-name="パス 333" d="M364.575,1427.734c9.537,0,15.731-4.356,18.871-13.178a.445.445,0,0,0-.416-.59H373.9a.671.671,0,0,0-.611.422c-1.125,2.6-4.686,4.577-8.407,4.577-6,0-9.22-3.066-9.581-9.546h28.4a.655.655,0,0,0,.655-.629l.06-1.473a29.751,29.751,0,0,0-.942-7.36c-2.461-9.317-9.526-14.66-18.9-14.66-12.038,0-20.775,8.813-20.775,21.258C343.8,1419.354,352.15,1427.734,364.575,1427.734Zm-.28-33.668c5.01,0,7.983,2.9,8.5,7.909H355.317C355.857,1396.88,359.267,1394.066,364.3,1394.066Z" transform="translate(-202.044 -1371.047)"/>
  <path id="パス_334" data-name="パス 334" d="M217.791,1398.326a.551.551,0,0,0,.536.671h10.311a.662.662,0,0,0,.635-.507,6.683,6.683,0,0,1,6.373-5.418,5.812,5.812,0,0,1,6.012,5.626c0,.011.008.988.009,1.265-.51,1.022-5.142,1.923-7.643,2.409-1.175.221-7.817,1.594-9.166,1.95a11.977,11.977,0,0,0-8.872,11.059c0,7.7,4.8,12.288,12.83,12.288,5.3,0,9.735-1.477,12.872-4.278v2.531a.656.656,0,0,0,.656.656h10.183a.655.655,0,0,0,.656-.656l-.009-26.992c0-7.95-6.964-13.918-16.949-13.918C225.892,1385.013,219.85,1389.533,217.791,1398.326Zm23.89,12.617c0,5.554-2.7,8.3-8.758,8.892-.292.029-.575.043-.846.043a4.638,4.638,0,0,1-5.032-4.964c0-2.913,2.8-5.2,7.323-5.961l.336-.066a31.974,31.974,0,0,0,6.976-1.869Z" transform="translate(-172.8 -1370.981)"/>
  <path id="パス_335" data-name="パス 335" d="M178.283,1422.418h13.292a.656.656,0,0,0,.622-.449l18.02-54.287a.655.655,0,0,0-.622-.862h-11.03a.655.655,0,0,0-.625.455l-12.894,40.233-12.751-40.23a.656.656,0,0,0-.625-.457H160.643a.655.655,0,0,0-.623.858l17.639,54.288A.657.657,0,0,0,178.283,1422.418Z" transform="translate(-159.988 -1366.819)"/>
  <path id="パス_336" data-name="パス 336" d="M547.021,1399.957c-2.461-9.317-9.526-14.66-18.9-14.66-12.038,0-20.775,8.813-20.775,21.258,0,12.8,8.349,21.179,20.775,21.179,9.537,0,15.73-4.356,18.871-13.178a.444.444,0,0,0-.416-.59H537.45a.67.67,0,0,0-.61.422c-1.126,2.6-4.686,4.577-8.407,4.577-6,0-9.221-3.066-9.581-9.546h28.4a.656.656,0,0,0,.655-.629l.06-1.473A29.756,29.756,0,0,0,547.021,1399.957Zm-28.158,2.018c.541-5.1,3.95-7.909,8.979-7.909,5.009,0,7.983,2.9,8.5,7.909Z" transform="translate(-239.463 -1371.047)"/>
  <g id="グループ_506" data-name="グループ 506" transform="translate(114.432 69.579)">
    <path id="パス_366" data-name="パス 366" d="M327.734,1457.041H308.368v4.37h7.085v19.266h5.2v-19.266h7.085Z" transform="translate(-308.368 -1457.041)"/>
    <path id="パス_367" data-name="パス 367" d="M343.861,1468.008a7.613,7.613,0,0,0-2.665-2.267,8.127,8.127,0,0,0-3.807-.844,8.855,8.855,0,0,0-3.558.695,8.278,8.278,0,0,0-4.552,4.767,10,10,0,0,0-.629,3.575,10.415,10.415,0,0,0,.612,3.642,8.262,8.262,0,0,0,1.738,2.847,7.561,7.561,0,0,0,2.747,1.837,9.773,9.773,0,0,0,3.642.645,8.966,8.966,0,0,0,4.966-1.324,7.853,7.853,0,0,0,3.046-4.4h-4.138a2.95,2.95,0,0,1-1.258,1.506,4.82,4.82,0,0,1-5.495-.314,4.75,4.75,0,0,1-1.158-3.311H345.7a12.06,12.06,0,0,0-.331-3.806A9.332,9.332,0,0,0,343.861,1468.008Zm-10.51,4.071a5.388,5.388,0,0,1,.214-1.125,3.462,3.462,0,0,1,.629-1.192,3.561,3.561,0,0,1,1.192-.943,4.092,4.092,0,0,1,1.871-.381,3.3,3.3,0,0,1,2.565.927,5.443,5.443,0,0,1,1.175,2.714Z" transform="translate(-313.008 -1458.838)"/>
    <path id="パス_368" data-name="パス 368" d="M363.686,1478.452a3.443,3.443,0,0,1-2.6.943,3.325,3.325,0,0,1-1.854-.5,3.694,3.694,0,0,1-1.208-1.275,5.787,5.787,0,0,1-.645-1.738,9.323,9.323,0,0,1-.2-1.886,9.728,9.728,0,0,1,.2-1.937,5.694,5.694,0,0,1,.679-1.788,4.074,4.074,0,0,1,1.242-1.323,3.3,3.3,0,0,1,1.886-.514,3.152,3.152,0,0,1,3.476,2.946h4.6a6.247,6.247,0,0,0-2.6-4.882,7.827,7.827,0,0,0-2.516-1.208,10.739,10.739,0,0,0-2.93-.4,9.332,9.332,0,0,0-3.708.695,7.8,7.8,0,0,0-2.747,1.937,8.316,8.316,0,0,0-1.705,2.946,11.4,11.4,0,0,0-.579,3.692,9.568,9.568,0,0,0,.629,3.526,8.207,8.207,0,0,0,1.754,2.764,7.813,7.813,0,0,0,2.732,1.8,9.36,9.36,0,0,0,3.525.645,8.55,8.55,0,0,0,5.6-1.787,7.754,7.754,0,0,0,2.648-5.2h-4.535A4.467,4.467,0,0,1,363.686,1478.452Z" transform="translate(-318.461 -1458.838)"/>
    <path id="パス_369" data-name="パス 369" d="M390.857,1465.035a4.594,4.594,0,0,0-1.9-1.424,8,8,0,0,0-3.1-.513,6.174,6.174,0,0,0-2.714.678,5.452,5.452,0,0,0-2.284,2.168h-.1v-8.9h-4.7v23.636h4.7v-8.971a6.34,6.34,0,0,1,.861-3.756,3.255,3.255,0,0,1,2.781-1.142,2.565,2.565,0,0,1,2.35,1.043,5.991,5.991,0,0,1,.662,3.161v9.666h4.7V1470.15a13.816,13.816,0,0,0-.281-2.9A5.513,5.513,0,0,0,390.857,1465.035Z" transform="translate(-323.855 -1457.041)"/>
    <path id="パス_370" data-name="パス 370" d="M414.086,1466.832a4.591,4.591,0,0,0-1.9-1.424,7.993,7.993,0,0,0-3.095-.513,6.7,6.7,0,0,0-2.913.679,5.4,5.4,0,0,0-2.317,2.168h-.1v-2.383h-4.469v17.115h4.7V1473.5a6.342,6.342,0,0,1,.861-3.756,3.253,3.253,0,0,1,2.78-1.142,2.566,2.566,0,0,1,2.351,1.043,6,6,0,0,1,.662,3.161v9.666h4.7v-10.527a13.815,13.815,0,0,0-.281-2.9A5.512,5.512,0,0,0,414.086,1466.832Z" transform="translate(-329.17 -1458.838)"/>
    <path id="パス_371" data-name="パス 371" d="M437.088,1467.362a7.981,7.981,0,0,0-2.8-1.82,9.9,9.9,0,0,0-3.659-.645,9.769,9.769,0,0,0-3.641.645,7.819,7.819,0,0,0-4.568,4.668,10.479,10.479,0,0,0-.629,3.724,10.345,10.345,0,0,0,.629,3.708,8.023,8.023,0,0,0,1.787,2.83,7.808,7.808,0,0,0,2.781,1.8,10.013,10.013,0,0,0,3.641.628,10.152,10.152,0,0,0,3.659-.628,7.787,7.787,0,0,0,2.8-1.8,8.047,8.047,0,0,0,1.788-2.83,10.379,10.379,0,0,0,.629-3.708,10.515,10.515,0,0,0-.629-3.724A8.029,8.029,0,0,0,437.088,1467.362Zm-2.483,8.575a5.361,5.361,0,0,1-.679,1.755,3.59,3.59,0,0,1-1.291,1.241,3.985,3.985,0,0,1-2,.463,3.888,3.888,0,0,1-1.986-.463,3.611,3.611,0,0,1-1.274-1.241,5.328,5.328,0,0,1-.679-1.755,10.06,10.06,0,0,1-.2-2,10.307,10.307,0,0,1,.2-2.019,5.149,5.149,0,0,1,.679-1.754,3.611,3.611,0,0,1,3.26-1.721,3.882,3.882,0,0,1,2,.479,3.782,3.782,0,0,1,1.291,1.242,5.181,5.181,0,0,1,.679,1.754,10.314,10.314,0,0,1,.2,2.019A10.067,10.067,0,0,1,434.605,1475.936Z" transform="translate(-334.32 -1458.838)"/>
    <rect id="長方形_263" data-name="長方形 263" width="4.701" height="23.636" transform="translate(107.043 0)"/>
    <path id="パス_372" data-name="パス 372" d="M470.987,1467.362a7.98,7.98,0,0,0-2.8-1.82,9.9,9.9,0,0,0-3.658-.645,9.771,9.771,0,0,0-3.642.645,7.818,7.818,0,0,0-4.568,4.668,10.48,10.48,0,0,0-.629,3.724,10.345,10.345,0,0,0,.629,3.708,8.025,8.025,0,0,0,1.787,2.83,7.809,7.809,0,0,0,2.781,1.8,10.014,10.014,0,0,0,3.642.628,10.148,10.148,0,0,0,3.658-.628,7.786,7.786,0,0,0,2.8-1.8,8.046,8.046,0,0,0,1.788-2.83,10.379,10.379,0,0,0,.629-3.708,10.514,10.514,0,0,0-.629-3.724A8.028,8.028,0,0,0,470.987,1467.362Zm-2.482,8.575a5.363,5.363,0,0,1-.679,1.755,3.584,3.584,0,0,1-1.291,1.241,3.983,3.983,0,0,1-2,.463,3.89,3.89,0,0,1-1.987-.463,3.61,3.61,0,0,1-1.274-1.241,5.33,5.33,0,0,1-.679-1.755,10.065,10.065,0,0,1-.2-2,10.311,10.311,0,0,1,.2-2.019,5.151,5.151,0,0,1,.679-1.754,3.612,3.612,0,0,1,3.261-1.721,3.88,3.88,0,0,1,2,.479,3.775,3.775,0,0,1,1.291,1.242,5.183,5.183,0,0,1,.679,1.754,10.316,10.316,0,0,1,.2,2.019A10.069,10.069,0,0,1,468.5,1475.936Z" transform="translate(-342.076 -1458.838)"/>
    <path id="パス_373" data-name="パス 373" d="M492.857,1467.644h-.066a5.116,5.116,0,0,0-2.135-2.119,6.619,6.619,0,0,0-2.962-.628,6.9,6.9,0,0,0-3.161.695,6.8,6.8,0,0,0-2.3,1.871,8.34,8.34,0,0,0-1.407,2.714,10.673,10.673,0,0,0-.48,3.2,13.012,13.012,0,0,0,.414,3.327,7.724,7.724,0,0,0,1.307,2.747,6.278,6.278,0,0,0,2.284,1.854,7.472,7.472,0,0,0,3.31.679,7.026,7.026,0,0,0,2.964-.646,4.653,4.653,0,0,0,2.168-2h.066v2.251a4.679,4.679,0,0,1-.877,3.013,3.413,3.413,0,0,1-2.9,1.191,4.637,4.637,0,0,1-2.219-.512,2.682,2.682,0,0,1-1.29-1.838h-4.668a4.941,4.941,0,0,0,.811,2.5,5.857,5.857,0,0,0,1.788,1.7,8.164,8.164,0,0,0,2.383.977,10.955,10.955,0,0,0,2.566.315,11.583,11.583,0,0,0,4.7-.794,7.227,7.227,0,0,0,2.681-1.937,5.809,5.809,0,0,0,1.208-2.467,11.465,11.465,0,0,0,.281-2.35v-16.023h-4.469Zm-.248,7.829a4.673,4.673,0,0,1-.745,1.506,3.678,3.678,0,0,1-1.258,1.06,3.756,3.756,0,0,1-1.754.4,3.328,3.328,0,0,1-1.821-.463,3.668,3.668,0,0,1-1.175-1.192,4.961,4.961,0,0,1-.628-1.639,9.311,9.311,0,0,1-.182-1.837,7.723,7.723,0,0,1,.214-1.837,4.544,4.544,0,0,1,.7-1.557,3.584,3.584,0,0,1,1.192-1.076,3.447,3.447,0,0,1,1.7-.4,3.868,3.868,0,0,1,1.92.43,3.428,3.428,0,0,1,1.225,1.158,5.022,5.022,0,0,1,.662,1.672,9.734,9.734,0,0,1,.2,2A6.234,6.234,0,0,1,492.609,1475.473Z" transform="translate(-347.716 -1458.838)"/>
    <rect id="長方形_264" data-name="長方形 264" width="4.701" height="3.873" transform="translate(151.84 0)"/>
    <rect id="長方形_265" data-name="長方形 265" width="4.701" height="17.115" transform="translate(151.84 6.521)"/>
    <path id="パス_374" data-name="パス 374" d="M528.248,1468.008a7.6,7.6,0,0,0-2.664-2.267,8.128,8.128,0,0,0-3.807-.844,8.855,8.855,0,0,0-3.558.695,8.272,8.272,0,0,0-4.552,4.767,9.984,9.984,0,0,0-.629,3.575,10.432,10.432,0,0,0,.612,3.642,8.273,8.273,0,0,0,1.738,2.847,7.571,7.571,0,0,0,2.748,1.837,9.773,9.773,0,0,0,3.642.645,8.963,8.963,0,0,0,4.965-1.324,7.854,7.854,0,0,0,3.046-4.4H525.65a2.958,2.958,0,0,1-1.258,1.506,4.82,4.82,0,0,1-5.495-.314,4.75,4.75,0,0,1-1.159-3.311h12.348a12.107,12.107,0,0,0-.331-3.806A9.318,9.318,0,0,0,528.248,1468.008Zm-10.51,4.071a5.345,5.345,0,0,1,.215-1.125,3.461,3.461,0,0,1,.629-1.192,3.572,3.572,0,0,1,1.192-.943,4.09,4.09,0,0,1,1.87-.381,3.3,3.3,0,0,1,2.565.927,5.428,5.428,0,0,1,1.175,2.714Z" transform="translate(-355.196 -1458.838)"/>
    <path id="パス_375" data-name="パス 375" d="M551.036,1473.619a6.594,6.594,0,0,0-1.737-.878,19.917,19.917,0,0,0-2-.562q-.994-.231-1.953-.431a15.014,15.014,0,0,1-1.7-.446,3.554,3.554,0,0,1-1.209-.646,1.288,1.288,0,0,1-.464-1.026,1.268,1.268,0,0,1,.265-.844,1.75,1.75,0,0,1,.646-.481,2.883,2.883,0,0,1,.844-.215,8.094,8.094,0,0,1,.861-.049,4.7,4.7,0,0,1,2.185.479,2.061,2.061,0,0,1,1.026,1.837h4.469a5.624,5.624,0,0,0-.811-2.631,5.359,5.359,0,0,0-1.705-1.672,7.147,7.147,0,0,0-2.334-.893,13.561,13.561,0,0,0-2.7-.265,14.649,14.649,0,0,0-2.714.248,7.471,7.471,0,0,0-2.384.861,4.76,4.76,0,0,0-1.7,1.672,5.14,5.14,0,0,0-.646,2.714,3.655,3.655,0,0,0,.464,1.9,4.021,4.021,0,0,0,1.225,1.29,6.8,6.8,0,0,0,1.738.828q.976.315,2,.546a28.185,28.185,0,0,1,3.923,1.06q1.407.53,1.407,1.589a1.735,1.735,0,0,1-.3,1.043,2.248,2.248,0,0,1-.744.663,3.56,3.56,0,0,1-.993.364,5,5,0,0,1-1.043.116,5.384,5.384,0,0,1-1.341-.165,3.468,3.468,0,0,1-1.141-.514,2.724,2.724,0,0,1-.811-.894,2.576,2.576,0,0,1-.315-1.308h-4.469a5.744,5.744,0,0,0,.778,2.863,5.663,5.663,0,0,0,1.821,1.838,7.671,7.671,0,0,0,2.533.993,14.2,14.2,0,0,0,2.913.3,14.633,14.633,0,0,0,2.864-.281,7.275,7.275,0,0,0,2.5-.977,5.2,5.2,0,0,0,2.45-4.667,3.994,3.994,0,0,0-.464-2A4.255,4.255,0,0,0,551.036,1473.619Z" transform="translate(-360.648 -1458.838)"/>
  </g>
</svg>
